# xmcd
#
# Track frame offsets:
#	150
#	13307
#	24325
#	48962
#	59950
#	69880
#	86517
#	98380
#	109872
#	125437
#	145722
#	157125
#
# Disc length: 2249 seconds
#
# Revision: 0
# Processed by: cddbd v1.5.1PL0 Copyright (c) Steve Scherf et al.
# Submitted via: dBpowerAMP V4.0
#
DISCID=9c08c70c
DTITLE=101 Strings Orchestra - Take Me Home Country Roads Disk 1
DYEAR=1900
DGENRE=Country
TTITLE0=Take Me Home Country Roads
TTITLE1=King Of The Road
TTITLE2=Home On The Range
TTITLE3=Jeannie With The Light Brown Hair
TTITLE4=When Johnny Comes Marching Home
TTITLE5=My Old Kentucky Home
TTITLE6=Yankee Doodle Dandy
TTITLE7=Shine On Harvest Moon
TTITLE8=Bury Me Not On The Lone Prairie
TTITLE9=Swing Low Sweet Chariot
TTITLE10=Homeward Bound
TTITLE11=Let's Take An Old Fashioned Walk
EXTD=
EXTT0=
EXTT1=
EXTT2=
EXTT3=
EXTT4=
EXTT5=
EXTT6=
EXTT7=
EXTT8=
EXTT9=
EXTT10=
EXTT11=
PLAYORDER=
